HIERARCHY
ROOT hip
{
  OFFSET 0 0 0
  CHANNELS 6 Xposition Yposition Zposition Zrotation Yrotation Xrotation
  JOINT abdomen
  {
    OFFSET 0 20.6881 -0.73152
    CHANNELS 3 Zrotation Xrotation Yrotation
    JOINT chest
    {
      OFFSET 0 11.7043 -0.48768
      CHANNELS 3 Zrotation Xrotation Yrotation
      JOINT neck
      {
        OFFSET 0 22.1894 -2.19456
        CHANNELS 3 Zrotation Xrotation Yrotation
        JOINT head
        {
          OFFSET -0.24384 7.07133 1.2192
          CHANNELS 3 Zrotation Xrotation Yrotation
          JOINT leftEye
          {
            OFFSET 4.14528 8.04674 8.04672
            CHANNELS 3 Zrotation Xrotation Yrotation
            End Site
            {
              OFFSET 1 0 0
            }
          }
          JOINT rightEye
          {
            OFFSET -3.6576 8.04674 8.04672
            CHANNELS 3 Zrotation Xrotation Yrotation
            End Site
            {
              OFFSET 1 0 0
            }
          }
        }
      }
      JOINT rCollar
      {
        OFFSET -2.68224 19.2634 -4.8768
        CHANNELS 3 Zrotation Xrotation Yrotation
        JOINT rShldr
        {
          OFFSET -8.77824 -1.95073 1.46304
          CHANNELS 3 Zrotation Xrotation Yrotation
          JOINT rForeArm
          {
            OFFSET -28.1742 -1.7115 0.48768
            CHANNELS 3 Zrotation Xrotation Yrotation
            JOINT rHand
            {
              OFFSET -22.5879 0.773209 7.07136
              CHANNELS 3 Zrotation Xrotation Yrotation
              JOINT rThumb1
              {
                OFFSET -1.2192 -0.487915 3.41376
                CHANNELS 3 Zrotation Xrotation Yrotation
                JOINT rThumb2
                {
                  OFFSET -3.37035 -0.52449 3.41376
                  CHANNELS 3 Zrotation Xrotation Yrotation
                  End Site
                  {
                    OFFSET -1.78271 -1.18214 1.43049
                  }
                }
              }
              JOINT rIndex1
              {
                OFFSET -7.75947 0.938293 5.60832
                CHANNELS 3 Zrotation Xrotation Yrotation
                JOINT rIndex2
                {
                  OFFSET -2.54057 -0.884171 1.56538
                  CHANNELS 3 Zrotation Xrotation Yrotation
                  End Site
                  {
                    OFFSET -1.62519 -0.234802 1.16502
                  }
                }
              }
              JOINT rMid1
              {
                OFFSET -8.24714 1.18213 3.41376
                CHANNELS 3 Zrotation Xrotation Yrotation
                JOINT rMid2
                {
                  OFFSET -3.10165 -0.590103 1.0647
                  CHANNELS 3 Zrotation Xrotation Yrotation
                  End Site
                  {
                    OFFSET -2.48547 -0.328903 0.83742
                  }
                }
              }
              JOINT rRing1
              {
                OFFSET -8.82822 0.546677 1.51678
                CHANNELS 3 Zrotation Xrotation Yrotation
                JOINT rRing2
                {
                  OFFSET -2.60934 -0.819778 -0.0198488
                  CHANNELS 3 Zrotation Xrotation Yrotation
                  End Site
                  {
                    OFFSET -2.33842 -0.294052 0.168128
                  }
                }
              }
              JOINT rPinky1
              {
                OFFSET -8.27202 -0.0477905 -0.4584
                CHANNELS 3 Zrotation Xrotation Yrotation
                JOINT rPinky2
                {
                  OFFSET -1.82734 -0.647385 -0.700984
                  CHANNELS 3 Zrotation Xrotation Yrotation
                  End Site
                  {
                    OFFSET -1.69225 -0.51767 -0.607171
                  }
                }
              }
            }
          }
        }
      }
      JOINT lCollar
      {
        OFFSET 2.68224 19.2634 -4.8768
        CHANNELS 3 Zrotation Xrotation Yrotation
        JOINT lShldr
        {
          OFFSET 8.77824 -1.95073 1.46304
          CHANNELS 3 Zrotation Xrotation Yrotation
          JOINT lForeArm
          {
            OFFSET 28.1742 -1.7115 0.48768
            CHANNELS 3 Zrotation Xrotation Yrotation
            JOINT lHand
            {
              OFFSET 22.5879 0.773209 7.07136
              CHANNELS 3 Zrotation Xrotation Yrotation
              JOINT lThumb1
              {
                OFFSET 1.2192 -0.487915 3.41376
                CHANNELS 3 Zrotation Xrotation Yrotation
                JOINT lThumb2
                {
                  OFFSET 3.37035 -0.52449 3.41376
                  CHANNELS 3 Zrotation Xrotation Yrotation
                  End Site
                  {
                    OFFSET 1.78271 -1.18214 1.43049
                  }
                }
              }
              JOINT lIndex1
              {
                OFFSET 7.75947 0.938293 5.60832
                CHANNELS 3 Zrotation Xrotation Yrotation
                JOINT lIndex2
                {
                  OFFSET 2.54057 -0.884171 1.56538
                  CHANNELS 3 Zrotation Xrotation Yrotation
                  End Site
                  {
                    OFFSET 1.62519 -0.234802 1.16502
                  }
                }
              }
              JOINT lMid1
              {
                OFFSET 8.24714 1.18213 3.41376
                CHANNELS 3 Zrotation Xrotation Yrotation
                JOINT lMid2
                {
                  OFFSET 3.10165 -0.590103 1.0647
                  CHANNELS 3 Zrotation Xrotation Yrotation
                  End Site
                  {
                    OFFSET 2.48547 -0.328903 0.83742
                  }
                }
              }
              JOINT lRing1
              {
                OFFSET 8.82822 0.546677 1.51678
                CHANNELS 3 Zrotation Xrotation Yrotation
                JOINT lRing2
                {
                  OFFSET 2.60934 -0.819778 -0.0198488
                  CHANNELS 3 Zrotation Xrotation Yrotation
                  End Site
                  {
                    OFFSET 2.33842 -0.294052 0.168128
                  }
                }
              }
              JOINT lPinky1
              {
                OFFSET 8.27202 -0.0477905 -0.4584
                CHANNELS 3 Zrotation Xrotation Yrotation
                JOINT lPinky2
                {
                  OFFSET 1.82734 -0.647385 -0.700984
                  CHANNELS 3 Zrotation Xrotation Yrotation
                  End Site
                  {
                    OFFSET 1.69225 -0.51767 -0.607171
                  }
                }
              }
            }
          }
        }
      }
    }
  }
  JOINT rButtock
  {
    OFFSET -8.77824 4.35084 1.2192
    CHANNELS 3 Zrotation Xrotation Yrotation
    JOINT rThigh
    {
      OFFSET 0 -1.70687 -2.19456
      CHANNELS 3 Zrotation Xrotation Yrotation
      JOINT rShin
      {
        OFFSET 0 -36.8199 0.73152
        CHANNELS 3 Zrotation Xrotation Yrotation
        JOINT rFoot
        {
          OFFSET 0.73152 -45.1104 -5.12064
          CHANNELS 3 Zrotation Xrotation Yrotation
          End Site
          {
            OFFSET -1.1221 -3.69964 12.103
          }
        }
      }
    }
  }
  JOINT lButtock
  {
    OFFSET 8.77824 4.35084 1.2192
    CHANNELS 3 Zrotation Xrotation Yrotation
    JOINT lThigh
    {
      OFFSET 0 -1.70687 -2.19456
      CHANNELS 3 Zrotation Xrotation Yrotation
      JOINT lShin
      {
        OFFSET 0 -36.8199 0.73152
        CHANNELS 3 Zrotation Xrotation Yrotation
        JOINT lFoot
        {
          OFFSET -0.73152 -45.1104 -5.12064
          CHANNELS 3 Zrotation Xrotation Yrotation
          End Site
          {
            OFFSET 1.1221 -3.69964 12.103
          }
        }
      }
    }
  }
}
MOTION
Frames:	7
Frame Time:	0.00833333
225.126 84.7658 41.1812 0.0 0.0 0.0 -0.385196 -0.00168814 -0.0109958 -0.106234 -0.00256713 -0.0184049 3.49045e-15 0.0 -2.48481e-17 1.04207e-14 3.18055e-15 -7.60973e-17 -0.0 0.0 0.0 -0.0 0.0 0.0 1.78778e-15 -2.32951e-18 1.49089e-16 3.816e-14 -6.27414e-16 9.93923e-16 6.3795e-13 -1.93616e-13 -1.90833e-14 7.271e-12 1.7257e-13 -2.22639e-14 1.71551e-11 -4.02072e-14 -8.26944e-14 2.96197e-11 -6.99722e-14 -1.44715e-13 1.71607e-11 -3.93594e-14 -9.22361e-14 7.73091 5.47488 0.417314 1.7155e-11 -4.03533e-14 -7.95139e-14 2.90554 0.965183 0.102902 1.71608e-11 -3.99557e-14 -8.26944e-14 10.2786 0.731801 0.0259123 1.71541e-11 -3.93594e-14 -7.63333e-14 2.22167 -0.733487 -0.20892 1.69107e-15 -2.71776e-18 -1.49089e-16 3.46257e-14 -1.18028e-16 -7.95139e-16 6.32284e-13 1.87653e-13 6.36111e-15 7.26937e-12 -1.99803e-13 -3.49861e-14 1.71471e-11 -2.51806e-14 -7.95139e-14 2.96201e-11 -4.77083e-14 -1.30403e-13 1.71412e-11 -2.26615e-14 -6.99722e-14 -7.73091 5.47488 -0.417314 1.71478e-11 -2.56432e-14 -7.95139e-14 -2.90554 0.965183 -0.102902 1.71384e-11 -2.43511e-14 -7.71284e-14 -10.2786 0.731801 -0.0259123 1.71499e-11 -2.22639e-14 -8.26944e-14 -2.22167 -0.733487 0.20892 -2.03217e-16 0.0 -3.88251e-19 0.221642 -2.58356 -0.0280807 -0.00748952 -0.872629 -0.0651395 -0.513102 3.45577 0.129346 2.03217e-16 0.0 3.88251e-19 -0.807783 -4.07084 0.0653915 0.00325581 1.82139 0.0244325 0.517719 2.24911 -0.105181
221.783 83.4279 33.6352 -139.238 -81.2426 149.389 1.20661 -2.2663 -0.902382 0.114616 0.0453799 -0.329645 -3.01494 -0.126103 -2.14172 3.29163 -1.0356 -3.33705 -0.0 0.0 0.0 -0.0 0.0 0.0 -3.75909e-15 1.919e-13 -8.70541e-14 20.9189 6.60125 1.47357 -4.26158 -1.94469 6.64715 0.0121661 2.44709 0.342784 5.4065e-10 2.70083e-10 -2.80023e-10 9.31325e-10 4.68965e-10 -4.87706e-10 5.40655e-10 2.70085e-10 -2.8003e-10 7.73091 5.47488 0.417314 5.40649e-10 2.70083e-10 -2.80018e-10 2.90554 0.965183 0.102902 5.40655e-10 2.70084e-10 -2.80022e-10 10.2786 0.731801 0.0259123 5.40649e-10 2.70085e-10 -2.80014e-10 2.22167 -0.733487 -0.20892 -3.85167e-15 1.919e-13 -8.7315e-14 -21.9326 4.72235 -0.114603 4.36352 -2.01205 -6.78325 -0.0486162 4.89429 -0.678815 4.20253e-10 1.08968e-10 4.21703e-10 7.31854e-10 1.85989e-10 7.21525e-10 4.20247e-10 1.08969e-10 4.21712e-10 -7.73091 5.47488 -0.417314 4.20253e-10 1.08966e-10 4.21704e-10 -2.90554 0.965183 -0.102902 4.20246e-10 1.08967e-10 4.21705e-10 -10.2786 0.731801 -0.0259123 4.20255e-10 1.0897e-10 4.217e-10 -2.22167 -0.733487 0.20892 -2.03217e-16 0.0 -3.88251e-19 1.64002 -5.89269 0.916149 -0.00856043 2.92892 0.000716583 -0.681427 1.72919 -3.49957 2.03217e-16 0.0 3.88251e-19 0.946789 -6.46157 -0.906919 0.000640644 4.61515 -0.0268595 0.600853 0.135432 2.38696
221.78 83.4292 33.6404 -139.251 -81.2722 149.39 2.81266 -4.65868 -1.84993 0.347739 0.0991914 -0.658823 -6.21156 -0.258709 -4.40492 6.64029 -2.12036 -6.86657 -0.0 0.0 0.0 -0.0 0.0 0.0 -9.92884e-15 3.97998e-13 -1.79375e-13 42.6557 13.5582 3.09762 -8.27712 -3.91147 13.6948 -0.0069258 5.03501 0.707421 1.08803e-09 5.46689e-10 -5.65065e-10 1.87418e-09 9.49277e-10 -9.84206e-10 1.08803e-09 5.46692e-10 -5.6507e-10 7.73091 5.47488 0.417314 1.08803e-09 5.4669e-10 -5.65059e-10 2.90554 0.965183 0.102902 1.08803e-09 5.46691e-10 -5.65063e-10 10.2786 0.731801 0.0259123 1.08803e-09 5.46693e-10 -5.65053e-10 2.22167 -0.733487 -0.20892 -1.00186e-14 3.97998e-13 -1.79599e-13 -45.0942 9.71583 -0.242512 8.46422 -4.04647 -13.9838 0.0278592 10.0631 -1.41268 8.54471e-10 2.21324e-10 8.68218e-10 1.48821e-09 3.7767e-10 1.48537e-09 8.54467e-10 2.21325e-10 8.68228e-10 -7.73091 5.47488 -0.417314 8.54471e-10 2.21321e-10 8.6822e-10 -2.90554 0.965183 -0.102902 8.54467e-10 2.21323e-10 8.68221e-10 -10.2786 0.731801 -0.0259123 8.54474e-10 2.21325e-10 8.68215e-10 -2.22167 -0.733487 0.20892 -2.03217e-16 0.0 -3.88251e-19 3.25945 -9.38756 1.93032 -0.0192665 6.94791 0.0708023 -1.0964 -0.0886924 -7.33103 2.03217e-16 0.0 3.88251e-19 2.71217 -8.98529 -1.94678 0.00334905 7.56845 -0.081568 0.888584 -2.09053 5.0261
221.781 83.4292 33.6401 -139.113 -81.2837 149.258 4.17763 -6.78889 -2.702 0.557878 0.141257 -0.952129 -9.07304 -0.376194 -6.42529 9.5146 -3.06465 -10.024 -0.0 0.0 0.0 -0.0 0.0 0.0 -1.48528e-14 5.75704e-13 -2.6146e-13 61.6852 19.7497 4.66645 -11.4562 -5.52063 20.0268 -0.0519557 7.34021 1.0359 1.58764e-09 8.1033e-10 -8.39903e-10 2.73474e-09 1.40703e-09 -1.46283e-09 1.58764e-09 8.10333e-10 -8.39906e-10 7.73091 5.47488 0.417314 1.58764e-09 8.10331e-10 -8.39896e-10 2.90554 0.965183 0.102902 1.58764e-09 8.10332e-10 -8.399e-10 10.2786 0.731801 0.0259123 1.58764e-09 8.10334e-10 -8.39888e-10 2.22167 -0.733487 -0.20892 -1.49371e-14 5.75704e-13 -2.61647e-13 -65.7395 14.1668 -0.353389 11.6888 -5.69844 -20.4426 0.211966 14.6745 -2.09746 1.22646e-09 3.26953e-10 1.26527e-09 2.13632e-09 5.58063e-10 2.16484e-09 1.22646e-09 3.26953e-10 1.26528e-09 -7.73091 5.47488 -0.417314 1.22646e-09 3.26949e-10 1.26527e-09 -2.90554 0.965183 -0.102902 1.22646e-09 3.26951e-10 1.26527e-09 -10.2786 0.731801 -0.0259123 1.22647e-09 3.26953e-10 1.26526e-09 -2.22167 -0.733487 0.20892 -2.03217e-16 0.0 -3.88251e-19 4.81098 -12.4981 2.8578 -0.037194 10.532 0.13468 -1.67078 -1.68421 -10.7568 2.03217e-16 0.0 3.88251e-19 4.20821 -11.2315 -2.88931 0.010619 10.2026 -0.131233 1.31812 -4.05771 7.38969
221.782 83.4294 33.6415 -139.203 -81.2791 149.351 5.09059 -8.26999 -3.29929 0.709288 0.153975 -1.15575 -11.0768 -0.457882 -7.83845 11.4573 -3.69792 -12.2389 -0.0 0.0 0.0 -0.0 0.0 0.0 -1.66623e-14 6.82427e-13 -3.17956e-13 74.7189 24.0788 5.86548 -13.4675 -6.5328 24.4889 -0.09903 8.93961 1.26678 1.96783e-09 1.04156e-09 -1.08923e-09 3.38953e-09 1.80841e-09 -1.89675e-09 1.96783e-09 1.04156e-09 -1.08924e-09 7.73091 5.47488 0.417314 1.96782e-09 1.04156e-09 -1.08923e-09 2.90554 0.965183 0.102902 1.96783e-09 1.04156e-09 -1.08923e-09 10.2786 0.731801 0.0259123 1.96782e-09 1.04156e-09 -1.08922e-09 2.22167 -0.733487 -0.20892 -1.67346e-14 6.82428e-13 -3.18105e-13 -80.139 17.2618 -0.411768 13.7029 -6.71715 -24.9582 0.409834 17.9003 -2.6018 1.44289e-09 4.15762e-10 1.53865e-09 2.5138e-09 7.10234e-10 2.63335e-09 1.44289e-09 4.15762e-10 1.53866e-09 -7.73091 5.47488 -0.417314 1.44289e-09 4.15757e-10 1.53865e-09 -2.90554 0.965183 -0.102902 1.44289e-09 4.15759e-10 1.53865e-09 -10.2786 0.731801 -0.0259123 1.44289e-09 4.15761e-10 1.53864e-09 -2.22167 -0.733487 0.20892 -2.03217e-16 0.0 -3.88251e-19 5.95444 -14.6596 3.52144 -0.0544068 13.0289 0.180593 -2.18473 -2.77219 -13.1591 2.03217e-16 0.0 3.88251e-19 5.20696 -12.7942 -3.55671 0.0185082 12.0391 -0.166661 1.71319 -5.41399 9.04137
221.784 83.4288 33.6432 -138.997 -81.3097 149.155 5.4372 -8.84313 -3.5285 0.782298 0.11597 -1.23373 -11.8717 -0.494088 -8.40228 12.2022 -3.91554 -13.1281 -0.0 0.0 0.0 -0.0 0.0 0.0 -1.15753e-14 6.60838e-13 -3.40497e-13 79.7461 25.8429 6.36335 -14.2316 -6.915 26.2895 -0.120698 9.55307 1.35614 2.1779e-09 1.22318e-09 -1.24989e-09 3.75174e-09 2.12365e-09 -2.17652e-09 2.17791e-09 1.22319e-09 -1.2499e-09 7.73091 5.47488 0.417314 2.1779e-09 1.22318e-09 -1.24989e-09 2.90554 0.965183 0.102902 2.1779e-09 1.22319e-09 -1.24989e-09 10.2786 0.731801 0.0259123 2.1779e-09 1.22319e-09 -1.24988e-09 2.22167 -0.733487 -0.20892 -1.16158e-14 6.60839e-13 -3.40597e-13 -85.8214 18.4642 -0.384043 14.4312 -7.07216 -26.7057 0.50522 19.1893 -2.81056 1.47331e-09 4.57868e-10 1.58965e-09 2.56661e-09 7.82958e-10 2.72098e-09 1.47331e-09 4.57868e-10 1.58966e-09 -7.73091 5.47488 -0.417314 1.47331e-09 4.57863e-10 1.58966e-09 -2.90554 0.965183 -0.102902 1.47331e-09 4.57864e-10 1.58966e-09 -10.2786 0.731801 -0.0259123 1.47332e-09 4.57866e-10 1.58965e-09 -2.22167 -0.733487 0.20892 -2.03217e-16 0.0 -3.88251e-19 6.41594 -15.4993 3.785 -0.0620019 14.0031 0.199452 -2.41303 -3.18916 -14.1165 2.03217e-16 0.0 3.88251e-19 5.58817 -13.4054 -3.82023 0.0223516 12.7578 -0.181074 1.88759 -5.94187 9.67723
221.784 83.4294 33.6446 -138.967 -81.3184 149.122 5.39509 -8.76917 -3.49155 0.79908 0.0421943 -1.22196 -11.8009 -0.498064 -8.35936 12.117 -3.84466 -13.0679 -0.0 0.0 0.0 -0.0 0.0 0.0 -1.68283e-15 5.48976e-13 -3.38695e-13 79.1569 25.7868 6.30401 -14.1903 -6.90675 26.1767 -0.117629 9.46242 1.34293 2.26661e-09 1.36958e-09 -1.34974e-09 3.90518e-09 2.37772e-09 -2.35054e-09 2.26662e-09 1.36959e-09 -1.34975e-09 7.73091 5.47488 0.417314 2.26661e-09 1.36958e-09 -1.34974e-09 2.90554 0.965183 0.102902 2.26661e-09 1.36959e-09 -1.34974e-09 10.2786 0.731801 0.0259123 2.26661e-09 1.36959e-09 -1.34973e-09 2.22167 -0.733487 -0.20892 -1.67799e-15 5.48977e-13 -3.38738e-13 -85.28 18.3145 -0.293645 14.3284 -7.01535 -26.4633 0.496886 19.0966 -2.79515 1.36936e-09 4.67718e-10 1.48416e-09 2.38494e-09 8.00838e-10 2.54062e-09 1.36936e-09 4.67719e-10 1.48417e-09 -7.73091 5.47488 -0.417314 1.36936e-09 4.67713e-10 1.48416e-09 -2.90554 0.965183 -0.102902 1.36936e-09 4.67713e-10 1.48417e-09 -10.2786 0.731801 -0.0259123 1.36937e-09 4.67713e-10 1.48416e-09 -2.22167 -0.733487 0.20892 -2.03217e-16 0.0 -3.88251e-19 6.36406 -15.3972 3.75388 -0.0606396 13.8898 0.198366 -2.39095 -3.13969 -14.0374 2.03217e-16 0.0 3.88251e-19 5.54727 -13.3389 -3.78987 0.0221276 12.6783 -0.180154 1.86451 -5.88627 9.58145
